# xmcd
#
# Track frame offsets:
#	150
#	22880
#	40435
#	68097
#	82917
#	101377
#	118622
#	144275
#	159832
#	178575
#	201730
#	218322
#
# Disc length: 3127 seconds
#
# Revision: 0
# Processed by: cddbd v1.5.2PL0 Copyright (c) Steve Scherf et al.
# Submitted via: EasyCDDAExtractor 10.0.3.1
#
DISCID=940c350c
DTITLE=Various Artist - Kocham Cię
DYEAR=1994
DGENRE=
TTITLE0=CHŁOPCY Z PLACU BRONI - Kocham Cię
TTITLE1=MARTYNA JAKUBOWICZ - Dom Zachodzącego Słońca
TTITLE2=DAAB - W Moim Ogrodzie
TTITLE3=OPPOSITION - Love Love Love
TTITLE4=TUBYLCY BETONU - Talk
TTITLE5=CAVE - Taylor's Dummny Young Girl
TTITLE6=ZIYO - Dwa Słońca
TTITLE7=RENATA PRZEMYK - Mały Poeto Jestem Kobietą
TTITLE8=SKAWALKER - Raz Na Całe Życie
TTITLE9=HUMAN and EDYTA BARTOSIEWICZ - Faith
TTITLE10=BAKSZYSZ - Samotność
TTITLE11=WILKI - Eli Lama Sabachtani
EXTD=
EXTT0=
EXTT1=
EXTT2=
EXTT3=
EXTT4=
EXTT5=
EXTT6=
EXTT7=
EXTT8=
EXTT9=
EXTT10=
EXTT11=
PLAYORDER=
